<svg xmlns="http://www.w3.org/2000/svg" viewBox="0 0 1600 900" role="img" aria-labelledby="title desc">
  <title id="title">Freyja Desktop Cockpit</title>
  <desc id="desc">A representation of the Freyja desktop application showing the title bar, the workspace sidebar with sessions and a swarm, the streaming conversation with tool chips and a screenshot frame, and the activity panel with context, spend, tool timeline, changes, and artifacts.</desc>
  <defs>
    <linearGradient id="bg" x1="0" x2="1" y1="0" y2="1">
      <stop offset="0%" stop-color="#07110f"/>
      <stop offset="48%" stop-color="#101719"/>
      <stop offset="100%" stop-color="#030506"/>
    </linearGradient>
    <radialGradient id="halo" cx="50%" cy="46%" r="62%">
      <stop offset="0%" stop-color="#9ed1ff" stop-opacity=".18"/>
      <stop offset="38%" stop-color="#78d99b" stop-opacity=".09"/>
      <stop offset="72%" stop-color="#f4cb64" stop-opacity=".035"/>
      <stop offset="100%" stop-color="#000000" stop-opacity="0"/>
    </radialGradient>
    <linearGradient id="blueGreen" x1="0" x2="1">
      <stop offset="0%" stop-color="#9ed1ff"/>
      <stop offset="52%" stop-color="#83e29a"/>
      <stop offset="100%" stop-color="#f5cb66"/>
    </linearGradient>
    <linearGradient id="glass" x1="0" x2="1" y1="0" y2="1">
      <stop offset="0%" stop-color="#273735" stop-opacity=".82"/>
      <stop offset="55%" stop-color="#111a18" stop-opacity=".74"/>
      <stop offset="100%" stop-color="#050807" stop-opacity=".90"/>
    </linearGradient>
    <linearGradient id="glassHot" x1="0" x2="1" y1="0" y2="1">
      <stop offset="0%" stop-color="#324b4f" stop-opacity=".92"/>
      <stop offset="58%" stop-color="#13201d" stop-opacity=".82"/>
      <stop offset="100%" stop-color="#080b0a" stop-opacity=".94"/>
    </linearGradient>
    <radialGradient id="topo" cx="30%" cy="40%" r="80%">
      <stop offset="0%" stop-color="#aabacb" stop-opacity=".09"/>
      <stop offset="55%" stop-color="#aabacb" stop-opacity=".035"/>
      <stop offset="100%" stop-color="#000" stop-opacity="0"/>
    </radialGradient>
    <pattern id="grid" width="32" height="32" patternUnits="userSpaceOnUse">
      <path d="M32 0H0V32" fill="none" stroke="#ffffff" stroke-opacity=".045" stroke-width="1"/>
    </pattern>
    <pattern id="fineGrid" width="8" height="8" patternUnits="userSpaceOnUse">
      <path d="M8 0H0V8" fill="none" stroke="#ffffff" stroke-opacity=".018" stroke-width="1"/>
    </pattern>
    <filter id="softGlow" x="-40%" y="-40%" width="180%" height="180%">
      <feGaussianBlur stdDeviation="6" result="blur"/>
      <feColorMatrix in="blur" type="matrix" values="0 0 0 0 0.43 0 0 0 0 0.78 0 0 0 0 0.78 0 0 0 .38 0"/>
      <feMerge><feMergeNode/><feMergeNode in="SourceGraphic"/></feMerge>
    </filter>
    <style>
      .mono{font-family:ui-monospace,SFMono-Regular,Menlo,Monaco,Consolas,monospace}
      .kicker{font:800 11px ui-monospace,SFMono-Regular,Menlo,Monaco,Consolas,monospace;letter-spacing:3px;fill:#8aa39a}
      .label{font:800 11px ui-monospace,SFMono-Regular,Menlo,Monaco,Consolas,monospace;letter-spacing:2.5px;fill:#a7bac0}
      .title{font:800 16px ui-monospace,SFMono-Regular,Menlo,Monaco,Consolas,monospace;letter-spacing:1.5px;fill:#eff8f0}
      .body{font:500 12px ui-monospace,SFMono-Regular,Menlo,Monaco,Consolas,monospace;letter-spacing:.6px;fill:#cad4ce}
      .bodyDim{font:500 11.5px ui-monospace,SFMono-Regular,Menlo,Monaco,Consolas,monospace;letter-spacing:.6px;fill:#7f8d86}
      .micro{font:700 9px ui-monospace,SFMono-Regular,Menlo,Monaco,Consolas,monospace;letter-spacing:1.6px;fill:#7a877f}
      .pill{fill:#0f1716;stroke:#bdefff;stroke-opacity:.18;stroke-width:1}
      .panel{fill:url(#glass);stroke:#bdefff;stroke-opacity:.16;stroke-width:1.1}
      .panelHot{fill:url(#glassHot);stroke:#a6f0dc;stroke-opacity:.30;stroke-width:1.3}
      .row{fill:#13201e;stroke:#ffffff;stroke-opacity:.06}
      .rowHot{fill:#1a2e2c;stroke:#83e29a;stroke-opacity:.26}
      .dotBlue{fill:#9ed1ff}
      .dotGreen{fill:#83e29a}
      .dotGold{fill:#f5cb66}
      .dotPink{fill:#f59ec1}
      .text{fill:#eaf7ef}
      .accent{fill:#9ed1ff}
    </style>
  </defs>

  <rect x="0" y="0" width="1600" height="900" rx="42" fill="url(#bg)"/>
  <rect x="0" y="0" width="1600" height="900" rx="42" fill="url(#halo)"/>
  <rect x="0" y="0" width="1600" height="900" rx="42" fill="url(#grid)"/>
  <rect x="0" y="0" width="1600" height="900" rx="42" fill="url(#fineGrid)"/>

  <!-- Brand ─────────────────────────────────────────────── -->
  <g transform="translate(72 60)">
    <text class="kicker" x="0" y="0">DESKTOP COCKPIT</text>
    <text x="0" y="38" class="mono" font-weight="800" font-size="38" letter-spacing="4" fill="#eff8f0">FREYJA</text>
    <rect x="0" y="50" width="220" height="4" rx="2" fill="url(#blueGreen)"/>
    <text class="bodyDim" x="0" y="78">workspace + conversation + activity</text>
  </g>

  <!-- Title bar ─────────────────────────────────────────── -->
  <g transform="translate(72 168)">
    <rect width="1456" height="42" rx="12" class="panel"/>
    <!-- traffic lights -->
    <circle cx="22" cy="21" r="6" fill="#ff5f56" fill-opacity=".75"/>
    <circle cx="42" cy="21" r="6" fill="#ffbd2e" fill-opacity=".75"/>
    <circle cx="62" cy="21" r="6" fill="#27c93f" fill-opacity=".75"/>
    <text x="92" y="26" class="body">freyja</text>
    <circle cx="138" cy="21" r="3" fill="#83e29a"/>
    <text x="148" y="25" class="micro" fill="#83e29a">LIVE</text>
    <!-- ghost text-tabs -->
    <g transform="translate(196 9)">
      <rect width="86" height="24" rx="6" fill="#0a0a0a" stroke="#ffffff" stroke-opacity=".12"/>
      <text x="22" y="16" class="micro">DASHBOARD</text>
    </g>
    <g transform="translate(290 9)">
      <rect width="68" height="24" rx="6" fill="transparent"/>
      <text x="14" y="16" class="micro">WORKSPACE</text>
    </g>
    <g transform="translate(372 9)">
      <rect width="220" height="24" rx="6" fill="transparent" stroke="#ffffff" stroke-opacity=".10"/>
      <text x="14" y="16" class="micro">MODEL</text>
      <text x="56" y="16" class="micro" fill="#eaf7ef">claude-sonnet-4-6</text>
      <text x="186" y="16" class="micro" fill="#9ed1ff">high</text>
    </g>
    <!-- coordination toggle (pressed: bus) -->
    <g transform="translate(602 9)">
      <rect width="120" height="24" rx="6" fill="#0a0a0a" stroke="#ffffff" stroke-opacity=".10"/>
      <rect x="3" y="3" width="36" height="18" rx="4" fill="#0a0a0a" stroke="#ffffff" stroke-opacity=".22"/>
      <text x="14" y="16" class="micro" fill="#eaf7ef">BUS</text>
      <text x="50" y="16" class="micro">SOLO</text>
      <text x="84" y="16" class="micro">BOARD</text>
    </g>
    <!-- focus -->
    <g transform="translate(732 9)">
      <rect width="60" height="24" rx="6" fill="transparent"/>
      <text x="14" y="16" class="micro">FOCUS</text>
    </g>
    <!-- ctx + spend -->
    <g transform="translate(950 11)">
      <text class="micro" fill="#7f8d86">CTX</text>
      <text x="36" y="0" class="micro" fill="#eaf7ef">186K</text>
      <text x="84" y="0" class="micro" fill="#7f8d86">/ 1M</text>
      <rect x="138" y="-8" width="120" height="3" rx="1.5" fill="#1b2a26"/>
      <rect x="138" y="-8" width="44" height="3" rx="1.5" fill="url(#blueGreen)"/>
    </g>
    <g transform="translate(1240 11)">
      <text class="micro" fill="#7f8d86">SPEND</text>
      <text x="50" y="0" class="micro" fill="#eaf7ef">$0.41</text>
    </g>
    <text x="1378" y="26" class="micro">desktop-19e058</text>
  </g>

  <!-- LEFT — sidebar (workspace) ───────────────────────── -->
  <g transform="translate(72 230)">
    <rect width="262" height="606" rx="18" class="panel" filter="url(#softGlow)"/>
    <rect width="262" height="606" rx="18" fill="url(#topo)"/>
    <text x="20" y="32" class="label">WORKSPACE</text>
    <g transform="translate(196 16)">
      <rect width="46" height="20" rx="5" fill="#9ed1ff" fill-opacity=".14" stroke="#9ed1ff" stroke-opacity=".30"/>
      <text x="14" y="13" class="micro" fill="#9ed1ff">+ NEW</text>
    </g>

    <text x="20" y="76" class="kicker">SESSIONS · 5</text>

    <g transform="translate(14 90)">
      <rect width="234" height="38" rx="9" class="rowHot"/>
      <circle cx="20" cy="19" r="4" class="dotGreen"/>
      <text x="34" y="16" class="body" fill="#eaf7ef">map architecture</text>
      <text x="34" y="29" class="micro">claude-sonnet-4-6 · running</text>
    </g>
    <g transform="translate(14 134)">
      <rect width="234" height="36" rx="9" class="row"/>
      <circle cx="20" cy="18" r="4" class="dotBlue"/>
      <text x="34" y="16" class="body">runner loop turn</text>
      <text x="34" y="28" class="micro">15 msg · 4h ago</text>
    </g>
    <g transform="translate(14 174)">
      <rect width="234" height="36" rx="9" class="row"/>
      <circle cx="20" cy="18" r="4" class="dotBlue"/>
      <text x="34" y="16" class="body">skills audit</text>
      <text x="34" y="28" class="micro">8 msg · yesterday</text>
    </g>
    <g transform="translate(14 214)">
      <rect width="234" height="36" rx="9" class="row"/>
      <circle cx="20" cy="18" r="4" class="dotGold"/>
      <text x="34" y="16" class="body">tool dry pass</text>
      <text x="34" y="28" class="micro">21 msg · 2d</text>
    </g>

    <line x1="20" y1="282" x2="242" y2="282" stroke="#bdefff" stroke-opacity=".10"/>
    <text x="20" y="304" class="kicker">SWARM · 3</text>

    <g transform="translate(14 318)">
      <rect width="234" height="34" rx="8" class="row"/>
      <circle cx="20" cy="17" r="4" class="dotGreen"/>
      <text x="34" y="15" class="body">explore: subagents map</text>
      <text x="34" y="27" class="micro">running · 2.3K tok</text>
    </g>
    <g transform="translate(14 358)">
      <rect width="234" height="34" rx="8" class="row"/>
      <circle cx="20" cy="17" r="4" class="dotBlue"/>
      <text x="34" y="15" class="body">verify: cancel path</text>
      <text x="34" y="27" class="micro">done · publish 4</text>
    </g>
    <g transform="translate(14 398)">
      <rect width="234" height="34" rx="8" class="row"/>
      <circle cx="20" cy="17" r="4" class="dotPink"/>
      <text x="34" y="15" class="body">code: trace event</text>
      <text x="34" y="27" class="micro">running · iter 3</text>
    </g>

    <line x1="20" y1="450" x2="242" y2="450" stroke="#bdefff" stroke-opacity=".10"/>
    <text x="20" y="472" class="kicker">SKILLS · 8 LOADED</text>
    <g transform="translate(14 484)">
      <rect width="110" height="22" rx="11" class="pill"/>
      <text x="14" y="15" class="micro" fill="#83e29a">analyze-session</text>
    </g>
    <g transform="translate(132 484)">
      <rect width="116" height="22" rx="11" class="pill"/>
      <text x="14" y="15" class="micro" fill="#9ed1ff">frontend-design</text>
    </g>
    <g transform="translate(14 514)">
      <rect width="100" height="22" rx="11" class="pill"/>
      <text x="14" y="15" class="micro" fill="#f5cb66">teach-impeccable</text>
    </g>

    <text x="20" y="568" class="kicker">MEMORY · 12</text>
    <text x="20" y="588" class="bodyDim">~/.freyja/knowledge</text>
  </g>

  <!-- CENTER — conversation ────────────────────────────── -->
  <g transform="translate(354 230)">
    <rect width="822" height="606" rx="18" class="panelHot" filter="url(#softGlow)"/>
    <text x="20" y="32" class="label">CONVERSATION</text>
    <text x="20" y="56" class="title">map the architecture and show how subagents interact with skills</text>
    <text x="20" y="78" class="bodyDim">objective · streaming · sub_agent · publish_finding · screenshot</text>

    <!-- user message -->
    <g transform="translate(20 110)">
      <rect width="500" height="62" rx="12" fill="#101817" stroke="#ffffff" stroke-opacity=".07"/>
      <text x="16" y="22" class="micro">USER · 11:42</text>
      <text x="16" y="42" class="body">Walk through how a child agent picks up a finding from the bus.</text>
      <text x="16" y="56" class="body">Cite the runner spot.</text>
    </g>

    <!-- assistant message + tool group -->
    <g transform="translate(20 192)">
      <rect width="782" height="22" rx="6" fill="transparent"/>
      <circle cx="8" cy="11" r="3" class="dotBlue"/>
      <text x="20" y="14" class="micro" fill="#9ed1ff">ASSISTANT · CLAUDE-SONNET-4-6 · STREAMING</text>
    </g>

    <g transform="translate(20 224)">
      <rect width="782" height="62" rx="12" fill="#0d1614" stroke="#ffffff" stroke-opacity=".08"/>
      <text x="16" y="24" class="body" fill="#eaf7ef">The runner loop checks the per-turn message bus before each provider call,</text>
      <text x="16" y="42" class="body" fill="#eaf7ef">so a sibling's findings are visible without round-tripping through the parent.</text>
      <text x="16" y="56" class="bodyDim">Pulling up the trace…</text>
    </g>

    <!-- tool chips -->
    <g transform="translate(20 304)">
      <rect width="382" height="44" rx="10" fill="#0c1514" stroke="#9ed1ff" stroke-opacity=".22"/>
      <circle cx="18" cy="22" r="4" class="dotBlue"/>
      <text x="32" y="20" class="micro" fill="#9ed1ff">TOOL · grep</text>
      <text x="32" y="34" class="body">"on_finding_published" engine/runner.py</text>
      <text x="328" y="27" class="micro">82 ms</text>
    </g>
    <g transform="translate(412 304)">
      <rect width="390" height="44" rx="10" fill="#0c1514" stroke="#83e29a" stroke-opacity=".26"/>
      <circle cx="18" cy="22" r="4" class="dotGreen"/>
      <text x="32" y="20" class="micro" fill="#83e29a">TOOL · read</text>
      <text x="32" y="34" class="body">engine/runner.py · L322–L370</text>
      <text x="354" y="27" class="micro">14 ms</text>
    </g>

    <!-- subagent chip -->
    <g transform="translate(20 364)">
      <rect width="782" height="74" rx="12" fill="#0c1514" stroke="#f5cb66" stroke-opacity=".30"/>
      <text x="16" y="22" class="micro" fill="#f5cb66">SUB AGENT · explore-fast · running · 2.3K tok</text>
      <text x="16" y="42" class="body" fill="#eaf7ef">"verify · cancel path"</text>
      <text x="16" y="58" class="bodyDim">read findings (4) · grep · write summary  →  publish</text>
      <text x="708" y="22" class="micro" fill="#f5cb66">attach ↵</text>
      <rect x="676" y="48" width="38" height="18" rx="4" fill="#1a1a1a" stroke="#ffffff" stroke-opacity=".12"/>
      <text x="685" y="61" class="micro">SPLIT</text>
      <rect x="722" y="48" width="60" height="18" rx="4" fill="#1a1a1a" stroke="#ffffff" stroke-opacity=".12"/>
      <text x="732" y="61" class="micro">OPEN ▸</text>
    </g>

    <!-- screenshot frame placeholder -->
    <g transform="translate(20 458)">
      <rect width="500" height="86" rx="12" fill="#0a0f10" stroke="#ffffff" stroke-opacity=".10"/>
      <text x="16" y="22" class="micro" fill="#9ed1ff">COMPUTER USE · screenshot · finder.app</text>
      <rect x="16" y="32" width="468" height="42" rx="6" fill="#1a2629" stroke="#9ed1ff" stroke-opacity=".18"/>
      <rect x="24" y="40" width="84" height="6" rx="3" fill="#9ed1ff" fill-opacity=".34"/>
      <rect x="24" y="52" width="120" height="6" rx="3" fill="#83e29a" fill-opacity=".30"/>
      <rect x="24" y="64" width="60" height="6" rx="3" fill="#f5cb66" fill-opacity=".34"/>
      <rect x="160" y="40" width="316" height="26" rx="4" fill="#101a1c"/>
      <circle cx="172" cy="53" r="3" class="dotBlue"/>
      <rect x="180" y="50" width="288" height="6" rx="3" fill="#9ed1ff" fill-opacity=".22"/>
    </g>

    <!-- input dock -->
    <g transform="translate(20 558)">
      <rect width="782" height="36" rx="10" fill="#0a0f10" stroke="#9ed1ff" stroke-opacity=".24"/>
      <text x="16" y="22" class="body" fill="#9ed1ff">›</text>
      <text x="36" y="22" class="bodyDim">type @ to mention files, / for commands, paste images to attach</text>
      <text x="700" y="22" class="micro">⌘K · / · @</text>
    </g>
  </g>

  <!-- RIGHT — activity panel ───────────────────────────── -->
  <g transform="translate(1196 230)">
    <rect width="332" height="606" rx="18" class="panel" filter="url(#softGlow)"/>
    <rect width="332" height="606" rx="18" fill="url(#topo)"/>
    <text x="20" y="32" class="label">ACTIVITY</text>

    <text x="20" y="64" class="kicker">REQUEST CONTEXT</text>
    <text x="244" y="64" class="micro" fill="#eaf7ef">186K / 1M</text>
    <rect x="20" y="74" width="294" height="3" rx="1.5" fill="#1b2a26"/>
    <rect x="20" y="74" width="56" height="3" rx="1.5" fill="url(#blueGreen)"/>

    <g transform="translate(20 90)">
      <rect width="90" height="44" rx="9" class="row"/>
      <text x="14" y="18" class="micro">REQUEST</text>
      <text x="14" y="34" class="body" fill="#eaf7ef">186K</text>
    </g>
    <g transform="translate(122 90)">
      <rect width="90" height="44" rx="9" class="row"/>
      <text x="14" y="18" class="micro">OUTPUT</text>
      <text x="14" y="34" class="body" fill="#eaf7ef">12.4K</text>
    </g>
    <g transform="translate(224 90)">
      <rect width="90" height="44" rx="9" class="row"/>
      <text x="14" y="18" class="micro">CACHE</text>
      <text x="14" y="34" class="body" fill="#eaf7ef">1.2M</text>
    </g>
    <g transform="translate(20 142)">
      <rect width="294" height="44" rx="9" class="row"/>
      <text x="14" y="18" class="micro">BILLED INPUT</text>
      <text x="14" y="34" class="body" fill="#eaf7ef">14.6K</text>
    </g>

    <line x1="20" y1="208" x2="312" y2="208" stroke="#bdefff" stroke-opacity=".10"/>
    <text x="20" y="232" class="kicker">TOOL CALLS · 35 · 182M</text>

    <!-- timeline lanes -->
    <g transform="translate(20 244)">
      <rect width="294" height="22" rx="6" fill="#101817"/>
      <rect width="32" height="22" rx="6" fill="#9ed1ff" fill-opacity=".34"/>
      <rect x="34" width="74" height="22" rx="0" fill="#dc6868" fill-opacity=".60"/>
      <rect x="110" width="64" height="22" rx="0" fill="#7c8d89" fill-opacity=".70"/>
      <rect x="176" width="42" height="22" rx="0" fill="#dc6868" fill-opacity=".50"/>
      <rect x="220" width="42" height="22" rx="0" fill="#5fb19a" fill-opacity=".60"/>
      <rect x="264" width="30" height="22" rx="6" fill="#f5cb66" fill-opacity=".50"/>
    </g>
    <g transform="translate(20 274)">
      <circle cx="6" cy="6" r="3" fill="#9ed1ff"/>
      <text x="14" y="9" class="micro">tool_search</text>
      <circle cx="84" cy="6" r="3" fill="#dc6868"/>
      <text x="92" y="9" class="micro">shell</text>
      <circle cx="138" cy="6" r="3" fill="#7c8d89"/>
      <text x="146" y="9" class="micro">read</text>
      <circle cx="186" cy="6" r="3" fill="#5fb19a"/>
      <text x="194" y="9" class="micro">agent</text>
      <circle cx="240" cy="6" r="3" fill="#f5cb66"/>
      <text x="248" y="9" class="micro">media</text>
    </g>

    <line x1="20" y1="304" x2="312" y2="304" stroke="#bdefff" stroke-opacity=".10"/>
    <text x="20" y="326" class="kicker">CHANGES · 7</text>
    <g transform="translate(20 338)">
      <rect width="294" height="32" rx="8" class="row"/>
      <circle cx="14" cy="16" r="3" class="dotGreen"/>
      <text x="24" y="14" class="body">+126 −18</text>
      <text x="24" y="26" class="micro">engine/runner.py</text>
    </g>
    <g transform="translate(20 376)">
      <rect width="294" height="32" rx="8" class="row"/>
      <circle cx="14" cy="16" r="3" class="dotGold"/>
      <text x="24" y="14" class="body">+44 −2</text>
      <text x="24" y="26" class="micro">bridge/tools/coordination.py</text>
    </g>

    <text x="20" y="438" class="kicker">ARTIFACTS · 3</text>
    <g transform="translate(20 450)">
      <rect width="294" height="32" rx="8" class="row"/>
      <text x="14" y="14" class="body">freyja_bus_trace.md</text>
      <text x="14" y="26" class="micro">md · 2.4 KB</text>
    </g>
    <g transform="translate(20 488)">
      <rect width="294" height="32" rx="8" class="row"/>
      <text x="14" y="14" class="body">render-pipeline.svg</text>
      <text x="14" y="26" class="micro">svg · 14 KB</text>
    </g>

    <line x1="20" y1="538" x2="312" y2="538" stroke="#bdefff" stroke-opacity=".10"/>
    <text x="20" y="560" class="kicker">DIAGNOSTICS</text>
    <text x="20" y="580" class="bodyDim">19 events · 16 logs</text>
  </g>

  <!-- footer hint -->
  <g transform="translate(72 866)">
    <text class="micro">⌘N NEW</text>
    <text x="80" y="0" class="micro">⌘K PALETTE</text>
    <text x="180" y="0" class="micro">⌘[ SIDEBAR</text>
    <text x="280" y="0" class="micro">⌘] ACTIVITY</text>
    <text x="380" y="0" class="micro">⌘\ FOCUS</text>
    <text x="466" y="0" class="micro">⌘⇧M MISSION DASHBOARD</text>
  </g>
</svg>
